<svg xmlns="http://www.w3.org/2000/svg" width="229" height="75" viewBox="0 0 229 75">
  <g fill="none" fill-rule="evenodd">
    <path fill="#FFF" fill-rule="nonzero" d="M104.75185,25.7375 C111.27685,25.7375 117.76435,31.2125 117.76435,39.125 C117.76435,47.0375 111.27685,52.5125 104.75185,52.5125 C98.2268502,52.5125 91.7393502,47.0375 91.7393502,39.125 C91.7393502,31.2125 98.2268502,25.7375 104.75185,25.7375 Z M104.75185,27.95 C99.4268502,27.95 94.1768502,32.4875 94.1768502,39.125 C94.1768502,45.7625 99.4268502,50.3 104.75185,50.3 C110.11435,50.3 115.32685,45.7625 115.32685,39.125 C115.32685,32.4875 110.11435,27.95 104.75185,27.95 Z M141.396691,25.8875 C142.034191,25.8875 142.596691,26.45 142.596691,27.0875 L142.596691,51.35 C142.596691,52.025 142.146691,52.4 141.659191,52.4 C141.021691,52.4 140.646691,52.1375 140.271691,51.65 L124.184191,30.3125 L124.184191,51.125 C124.184191,51.8 123.584191,52.3625 122.984191,52.3625 C122.346691,52.3625 121.784191,51.8 121.784191,51.125 L121.784191,26.9 C121.784191,26.2625 122.271691,25.8875 122.759191,25.8875 C123.246691,25.8875 123.621691,26.075 123.996691,26.6 L140.234191,47.975 L140.234191,27.0875 C140.234191,26.45 140.759191,25.8875 141.396691,25.8875 Z M149.541532,50.1875 L162.554032,50.1875 C163.079032,50.1875 163.604032,50.6375 163.604032,51.2 C163.604032,51.8 163.079032,52.25 162.554032,52.25 L148.454032,52.25 C147.704032,52.25 147.179032,51.725 147.179032,50.975 L147.179032,27.0875 C147.179032,26.45 147.704032,25.8875 148.379032,25.8875 C149.054032,25.8875 149.541532,26.45 149.541532,27.0875 L149.541532,50.1875 Z M168.261373,25.8875 C168.936373,25.8875 169.461373,26.45 169.461373,27.0875 L169.461373,51.1625 C169.461373,51.8375 168.936373,52.4 168.261373,52.4 C167.586373,52.4 167.061373,51.8375 167.061373,51.1625 L167.061373,27.0875 C167.061373,26.45 167.586373,25.8875 168.261373,25.8875 Z M193.656214,25.8875 C194.293714,25.8875 194.856214,26.45 194.856214,27.0875 L194.856214,51.35 C194.856214,52.025 194.406214,52.4 193.918714,52.4 C193.281214,52.4 192.906214,52.1375 192.531214,51.65 L176.443714,30.3125 L176.443714,51.125 C176.443714,51.8 175.843714,52.3625 175.243714,52.3625 C174.606214,52.3625 174.043714,51.8 174.043714,51.125 L174.043714,26.9 C174.043714,26.2625 174.531214,25.8875 175.018714,25.8875 C175.506214,25.8875 175.881214,26.075 176.256214,26.6 L192.493714,47.975 L192.493714,27.0875 C192.493714,26.45 193.018714,25.8875 193.656214,25.8875 Z M201.801055,50.1125 L215.151055,50.1125 C215.713555,50.1125 216.201055,50.6 216.201055,51.2 C216.201055,51.8 215.713555,52.25 215.151055,52.25 L200.713555,52.25 C199.963555,52.25 199.438555,51.725 199.438555,50.975 L199.438555,27.275 C199.438555,26.525 199.963555,26 200.713555,26 L214.776055,26 C215.338555,26 215.826055,26.45 215.826055,27.05 C215.826055,27.65 215.338555,28.1375 214.776055,28.1375 L201.801055,28.1375 L201.801055,38 L211.026055,38 C211.588555,38 212.076055,38.45 212.076055,39.05 C212.076055,39.65 211.588555,40.1 211.026055,40.1 L201.801055,40.1 L201.801055,50.1125 Z"/>
    <path fill="#91CA43" d="M84.0918033,37.5009921 C84.0918033,44.126762 78.7124187,49.5 72.078192,49.5 C65.4439652,49.5 60.0655738,44.126762 60.0655738,37.5009921 C60.0655738,30.8747261 65.4439652,25.5 72.078192,25.5 C78.7124187,25.5 84.0918033,30.8747261 84.0918033,37.5009921"/>
    <path fill="#91CA43" d="M77.3344262,37.8754849 C77.3344262,40.9806051 74.8130314,43.5 71.7027932,43.5 C68.5930406,43.5 66.0721311,40.9806051 66.0721311,37.8754849 C66.0721311,34.7693949 68.5930406,32.25 71.7027932,32.25 C74.8130314,32.25 77.3344262,34.7693949 77.3344262,37.8754849"/>
    <path fill="#FFF" d="M74.3311475,37.5002478 C74.3311475,58.2109082 57.6912902,75 37.1653282,75 C16.6398573,75 0,58.2109082 0,37.5002478 C0,16.7895874 16.6398573,0 37.1653282,0 C57.6912902,0 74.3311475,16.7895874 74.3311475,37.5002478"/>
    <path stroke="#91CA43" stroke-width="5.315" d="M74.3311475,37.5002478 C74.3311475,58.2109082 57.6912902,75 37.1653282,75 C16.6398573,75 0,58.2109082 0,37.5002478 C0,16.7895874 16.6398573,0 37.1653282,0 C57.6912902,0 74.3311475,16.7895874 74.3311475,37.5002478 L74.3311475,37.5002478 Z"/>
    <path fill="#91CA43" d="M37.8273941,36.5922381 L37.8273941,17.3160063 C43.0749709,17.1439507 47.4231455,18.9980501 51.0659452,22.2991173 C57.1564352,27.8149005 59.8399054,34.8096618 57.9855946,43.0168151 C56.1091794,51.3230005 50.9249685,56.7787643 42.8264196,59.2145517 C33.737595,61.9484356 22.8160728,57.3179386 18.347061,48.8587038 C13.6349011,39.9408207 15.5014921,29.3048822 22.9359276,22.7022476 C26.0418368,19.9448562 26.0418368,19.9448562 24.4213411,15.75 C27.5537755,16.6517915 30.4666399,17.4900625 33.6098809,18.3943549 C32.5690108,21.4858544 31.5895417,24.3957951 30.483341,27.6793567 C29.5318708,26.0993459 28.800953,24.8874541 28.0803507,23.6920676 C21.0339696,27.3362457 17.8013287,36.053564 20.3413661,44.1981971 C22.7748113,52.0037205 31.4087771,57.5530146 39.2293022,56.3381218 C48.2704796,54.9346681 54.5004727,47.863382 54.8988425,39.3291229 C55.3060541,30.6023016 48.1967984,22.2996174 41.2221337,21.5673807 C41.2221337,23.383968 41.2191865,25.1755472 41.2231162,26.9661261 C41.2349051,31.5936221 41.3881621,36.2276202 41.1862755,40.845113 C41.1145591,42.4711387 40.4779534,44.275222 39.5584117,45.6126544 C37.9163028,47.9984257 34.3530788,48.5931179 31.892126,47.2981993 C29.8275781,46.2113479 28.9257199,44.0411463 29.4974862,41.5308347 C30.1571788,38.6419008 32.7085139,36.5847357 35.6248168,36.5922381 C36.2894214,36.5942388 36.9550085,36.5922381 37.8273941,36.5922381"/>
  </g>
</svg>
