<?xml version="1.0" encoding="UTF-8" standalone="no"?>
<svg width="34px" height="36px" viewBox="0 0 34 36" version="1.1" xmlns="http://www.w3.org/2000/svg" xmlns:xlink="http://www.w3.org/1999/xlink">
    <!-- Generator: Sketch 42 (36781) - http://www.bohemiancoding.com/sketch -->
    <title>Fill 4 Copy 2</title>
    <desc>Created with Sketch.</desc>
    <defs></defs>
    <g id="Page-1" stroke="none" stroke-width="1" fill="none" fill-rule="evenodd">
        <path d="M17.9524659,2.19728399 L17.9524659,17.3825539 C15.9975253,16.6970553 14.332841,16.7203855 12.3367294,18.9498 C10.4908922,21.0110992 11.0974796,24.6465063 13.3769855,25.5721696 C15.6846251,26.5094981 18.0032435,25.8603672 19.4675619,24.0975585 C20.05425,23.3921605 20.6834814,22.2572108 20.7054393,20.9150333 L20.7095564,19.9413371 L20.7095564,5.6981989 C26.4988977,7.18104428 30.7779462,12.4317305 30.7779462,18.6821879 C30.7779462,26.0840635 24.7779462,32.0847497 17.3753844,32.0847497 C9.97350887,32.0847497 3.97282269,26.0840635 3.97282269,18.6821879 C3.97282269,13.8027277 6.58650064,9.54152003 10.4847166,7.19888508 L12.3408465,10.8830113 L15.053335,3.20048618 L7.28297822,0.840010427 L9.08901665,4.42669844 C4.18142287,7.28534437 0.876070629,12.5929839 0.876070629,18.6821879 C0.876070629,27.7954084 8.26285013,35.1828741 17.3753844,35.1828741 C26.4886049,35.1828741 33.8760706,27.7954084 33.8760706,18.6821879 C33.8760706,9.76315773 26.7980743,2.50195004 17.9524659,2.19728399" id="Fill-4-Copy-2" fill="#FFFFFF" transform="translate(17.376071, 18.011442) rotate(3.000000) translate(-17.376071, -18.011442) "></path>
    </g>
</svg>