<svg xmlns="http://www.w3.org/2000/svg" width="150" height="150" viewBox="0 0 150 150">
  <g fill="none" fill-rule="evenodd">
    <rect width="50" height="50" y="50" fill="#8BC53F" rx="15"/>
    <path fill="#8BC53F" d="M38.4546806,45.7171541 L78.3866851,98.1878043 C80.0590178,100.385249 79.6333302,103.522324 77.4358852,105.194657 C76.5654204,105.857111 75.5017303,106.215831 74.407859,106.215831 L-5.42069414,106.215831 C-8.18211789,106.215831 -10.4206941,103.977254 -10.4206941,101.215831 C-10.4206941,100.122692 -10.0624542,99.0596728 -9.40081602,98.1895077 L30.4957326,45.7188575 C32.1671246,43.5206969 35.3040167,43.0936665 37.5021773,44.7650584 C37.8611625,45.0380161 38.1815693,45.3582859 38.4546806,45.7171541 Z" transform="rotate(-90 34.494 74.98)"/>
    <path fill="#8BC53F" d="M140.839664,112.369728 L119.387257,110.908821 L112.218106,135.910621 C112.192592,136.0819 112.155756,136.252508 112.107186,136.421895 C111.320277,139.166171 107.751106,140.550322 104.135219,139.513483 C100.519332,138.476644 98.2259917,135.411445 99.0129002,132.667169 C99.7998087,129.922893 103.36898,128.538741 106.984867,129.57558 C107.945919,129.851157 108.813543,130.270022 109.554738,130.788066 L117.269741,103.882651 L117.350284,103.905746 L146.824109,105.946029 L144.88851,112.645454 L137.478292,137.675319 L137.469363,137.672758 C136.619963,140.344163 133.097967,141.677797 129.530497,140.654841 C125.91461,139.618002 123.62127,136.552803 124.408178,133.808527 C125.195087,131.064251 128.764258,129.6801 132.380145,130.716939 C133.364792,130.999282 134.251368,131.432035 135.00438,131.967759 L140.839664,112.369728 Z" transform="rotate(10 122.841 122.44)"/>
    <path fill="#8BC53F" d="M99.7401852,76.2826952 L85.8757917,75.338063 L81.2400018,91.5049836 C81.2234972,91.6157329 81.1996752,91.7260497 81.1682688,91.835577 C80.6594431,93.610063 78.3525085,94.5053433 76.015586,93.8352415 C73.6786635,93.1651398 72.1966983,91.1834099 72.7055239,89.408924 C73.2143496,87.634438 75.5212843,86.7391577 77.8582067,87.4092594 C78.4793278,87.5873631 79.0400529,87.8581229 79.5190559,88.1930211 L84.5076815,70.7956164 L84.5563729,70.8095785 L103.606789,72.1289701 L102.357842,76.4539256 L97.565948,92.6438727 L97.5601776,92.6422181 C97.0109686,94.3695915 94.7345282,95.2322036 92.4288977,94.5710747 C90.0919753,93.900973 88.61001,91.9192431 89.1188356,90.1447572 C89.6276613,88.3702712 91.934596,87.4749909 94.2715184,88.1450926 C94.9078891,88.327569 95.4808617,88.6073072 95.9675005,88.9536369 L99.7401852,76.2826952 Z" transform="rotate(3 88.107 82.795)"/>
    <path fill="#8BC53F" d="M110.703969,20.9491119 L95.4938659,19.9254915 L90.4750216,37.4282814 C90.4573311,37.548314 90.4316209,37.6678517 90.3975973,37.7865063 C89.8463695,39.7088661 87.3217272,40.6714517 84.758651,39.9365014 C82.1955748,39.2015511 80.5646493,37.0473757 81.1158771,35.1250159 C81.6671049,33.2026561 84.1917472,32.2400705 86.7548234,32.9750208 C87.436053,33.1703602 88.0514335,33.4659568 88.5774952,33.8308111 L93.9818395,14.9836226 L94.1262579,15.0250339 L114.974609,16.4512517 L113.602584,21.1441849 L111.108856,20.9763602 L113.561616,21.1828271 L108.368282,38.7213822 L108.361953,38.7195675 C107.766308,40.5906968 105.274963,41.517967 102.746207,40.7928579 C100.183131,40.0579076 98.5522056,37.9037322 99.1034334,35.9813724 C99.6546612,34.0590126 102.179303,33.096427 104.74238,33.8313773 C105.440335,34.0315127 106.069167,34.3368886 106.603637,34.7141658 L110.703969,20.9491119 Z" transform="rotate(-29 97.975 28.006)"/>
    <path fill="#8BC53F" d="M133.962432,71.0968417 L133.962432,46.1878769 L133.962432,45.1938122 L135.688886,46.1878769 L135.698321,46.1878769 L135.760585,46.2291599 L144.412432,51.2107553 L142.685678,54.1935715 L137.415942,51.1592372 L137.415942,73.8981189 C137.640384,74.3882367 137.762432,74.9152426 137.762432,75.4640825 C137.762432,78.0762401 134.997791,80.1938122 131.587432,80.1938122 C128.177074,80.1938122 125.412432,78.0762401 125.412432,75.4640825 C125.412432,72.8519249 128.177074,70.7343528 131.587432,70.7343528 C132.429038,70.7343528 133.23132,70.863313 133.962432,71.0968417 Z" transform="rotate(-20 134.912 62.694)"/>
  </g>
</svg>
