<svg xmlns="http://www.w3.org/2000/svg" width="150" height="150" viewBox="0 0 150 150">
  <path fill="#8BC53F" fill-rule="evenodd" d="M130.071733 16L99.4947737 16C93.2619852 12.2160093 85.3728602 10 76.5362766 10 67.699693 10 59.8052389 12.2160093 53.5633505 16L21.928267 16 19 0 133 0 130.071733 16zM139.515644 38L102.689107 38C95.3082479 33.5841126 85.9828567 31 75.5430482 31 65.1032398 31 55.7715804 33.5841126 48.3800099 38L11.4843562 38 8 19 143 19 139.515644 38zM0 41L150 41 128.808594 150 21.1914062 150 0 41zM75.4399562 137C99.1563252 137 121.184884 118.419817 124.642119 95.5 128.099354 72.5801829 106.119117 54 75.5478851 54 44.9766534 54 22.9480948 72.5801829 26.3457224 95.5 29.74335 118.419817 51.7235872 137 75.4399562 137zM75 110C66.031483 110 58.4274627 103.508129 58.0159454 95.5 57.6044281 87.4918711 65.2084484 81 75 81 84.7915516 81 92.3955719 87.4918711 91.9840546 95.5 91.5725373 103.508129 83.968517 110 75 110z"/>
</svg>
